<svg width="40" height="40" viewBox="0 0 40 40" fill="none" xmlns="http://www.w3.org/2000/svg">
<path d="M19.9082 12.2051C24.0918 12.2051 27.5449 15.6582 27.5449 19.8418C27.5449 24.0918 24.0918 27.4785 19.9082 27.4785C15.6582 27.4785 12.2715 24.0918 12.2715 19.8418C12.2715 15.6582 15.6582 12.2051 19.9082 12.2051ZM19.9082 24.8223C22.6309 24.8223 24.8223 22.6309 24.8223 19.8418C24.8223 17.1191 22.6309 14.9277 19.9082 14.9277C17.1191 14.9277 14.9277 17.1191 14.9277 19.8418C14.9277 22.6309 17.1855 24.8223 19.9082 24.8223ZM29.6035 11.9395C29.6035 12.9355 28.8066 13.7324 27.8105 13.7324C26.8145 13.7324 26.0176 12.9355 26.0176 11.9395C26.0176 10.9434 26.8145 10.1465 27.8105 10.1465C28.8066 10.1465 29.6035 10.9434 29.6035 11.9395ZM34.6504 13.7324C34.7832 16.1895 34.7832 23.5605 34.6504 26.0176C34.5176 28.4082 33.9863 30.4668 32.2598 32.2598C30.5332 33.9863 28.4082 34.5176 26.0176 34.6504C23.5605 34.7832 16.1895 34.7832 13.7324 34.6504C11.3418 34.5176 9.2832 33.9863 7.49023 32.2598C5.76367 30.4668 5.23242 28.4082 5.09961 26.0176C4.9668 23.5605 4.9668 16.1895 5.09961 13.7324C5.23242 11.3418 5.76367 9.2168 7.49023 7.49023C9.2832 5.76367 11.3418 5.23242 13.7324 5.09961C16.1895 4.9668 23.5605 4.9668 26.0176 5.09961C28.4082 5.23242 30.5332 5.76367 32.2598 7.49023C33.9863 9.2168 34.5176 11.3418 34.6504 13.7324ZM31.4629 28.6074C32.2598 26.6816 32.0605 22.0332 32.0605 19.8418C32.0605 17.7168 32.2598 13.0684 31.4629 11.0762C30.9316 9.81445 29.9355 8.75195 28.6738 8.28711C26.6816 7.49023 22.0332 7.68945 19.9082 7.68945C17.7168 7.68945 13.0684 7.49023 11.1426 8.28711C9.81445 8.81836 8.81836 9.81445 8.28711 11.0762C7.49023 13.0684 7.68945 17.7168 7.68945 19.8418C7.68945 22.0332 7.49023 26.6816 8.28711 28.6074C8.81836 29.9355 9.81445 30.9316 11.1426 31.4629C13.0684 32.2598 17.7168 32.0605 19.9082 32.0605C22.0332 32.0605 26.6816 32.2598 28.6738 31.4629C29.9355 30.9316 30.998 29.9355 31.4629 28.6074Z" fill="#BD9A68"/>
</svg>
