<svg width="16" height="16" viewBox="0 0 24 25" fill="none" xmlns="http://www.w3.org/2000/svg"><path fill-rule="evenodd" clip-rule="evenodd" d="M3.99383 10.5024C3.83477 11.142 3.75035 11.8111 3.75035 12.5C3.75035 13.1379 3.82273 13.7588 3.95974 14.3551H6.42419C6.35675 13.7532 6.32167 13.1328 6.32167 12.5C6.32167 11.8171 6.36252 11.1487 6.4408 10.5024H3.99383ZM4.52625 9.00238H6.69764C6.96845 7.79284 7.3773 6.69503 7.89695 5.76905C8.02151 5.54711 8.15406 5.33258 8.29427 5.12719C6.64452 5.95808 5.31185 7.32645 4.52625 9.00238ZM12.0761 2.75029C12.0507 2.7501 12.0254 2.75 12 2.75C6.61505 2.75 2.25 7.1154 2.25 12.5C2.25 17.8846 6.61505 22.25 12 22.25C12.0254 22.25 12.0507 22.2499 12.0761 22.2497C12.0916 22.2499 12.1071 22.25 12.1226 22.25C12.1874 22.25 12.2517 22.2483 12.3155 22.245C17.5544 22.0784 21.75 17.779 21.75 12.5C21.75 7.22097 17.5544 2.92157 12.3155 2.75501C12.2517 2.75168 12.1874 2.75 12.1226 2.75C12.1071 2.75 12.0916 2.7501 12.0761 2.75029ZM11.2453 4.43477C10.5242 4.73897 9.81232 5.42158 9.20542 6.50302C8.80862 7.21008 8.47804 8.05581 8.23965 9.00238H11.2453V4.43477ZM11.2453 10.5024H7.9532C7.86775 11.1403 7.82202 11.8091 7.82202 12.5C7.82202 13.1396 7.86122 13.7603 7.93484 14.3551H11.2453V10.5024ZM12.7457 14.3551V10.5024H16.292C16.3775 11.1403 16.4232 11.8091 16.4232 12.5C16.4232 13.1396 16.384 13.7603 16.3104 14.3551H12.7457ZM11.2453 15.8551H8.20465C8.44521 16.8594 8.78881 17.7546 9.20542 18.497C9.81232 19.5784 10.5242 20.261 11.2453 20.5652V15.8551ZM8.29427 19.8728C8.15406 19.6674 8.02151 19.4529 7.89695 19.2309C7.35696 18.2687 6.93663 17.121 6.66648 15.8551H4.46111C5.23695 17.596 6.59801 19.0185 8.29427 19.8728ZM16.0859 19.6687C17.6052 18.8008 18.8219 17.4639 19.5389 15.8551H17.5788C17.3086 17.121 16.8883 18.2687 16.3483 19.2309C16.2644 19.3804 16.1769 19.5265 16.0859 19.6687ZM16.0406 15.8551H12.7457V20.6568C13.5524 20.4158 14.3617 19.7054 15.0398 18.497C15.4564 17.7546 15.8 16.8594 16.0406 15.8551ZM17.8211 14.3551H20.0403C20.1773 13.7588 20.2497 13.1379 20.2497 12.5C20.2497 11.8111 20.1652 11.142 20.0062 10.5024H17.8044C17.8827 11.1487 17.9236 11.8171 17.9236 12.5C17.9236 13.1328 17.8885 13.7532 17.8211 14.3551ZM17.5476 9.00238C17.2768 7.79284 16.868 6.69503 16.3483 5.76905C16.2644 5.61962 16.1769 5.47354 16.0859 5.33135C17.5601 6.17345 18.7494 7.45719 19.4737 9.00238H17.5476ZM16.0056 9.00238H12.7457V4.34322C13.5524 4.58416 14.3617 5.2946 15.0398 6.50302C15.4366 7.21008 15.7672 8.05581 16.0056 9.00238Z" fill="#797978"></path></svg>