<svg width="52" height="52" viewBox="0 0 52 52" fill="none" xmlns="http://www.w3.org/2000/svg">
<path d="M48.32 34.239H4C2.89543 34.239 2 33.3436 2 32.239V21.9023C2 20.7978 2.89543 19.9023 4 19.9023H6.37187C7.47644 19.9023 8.37187 20.7978 8.37187 21.9023V26.8672C8.37187 27.4195 8.81958 27.8672 9.37187 27.8672H43.4791C44.0314 27.8672 44.4791 27.4195 44.4791 26.8672V21.9023C44.4791 20.7978 45.3745 19.9023 46.4791 19.9023H48.32C49.4246 19.9023 50.32 20.7978 50.32 21.9023V32.239C50.32 33.3436 49.4246 34.239 48.32 34.239Z" stroke="#BD9A68" stroke-width="3"/>
<path d="M44.4791 22.5578V16C44.4791 14.3431 43.1359 13 41.4791 13L11.3718 13C9.71497 13 8.37183 14.3431 8.37183 16V22.5578" stroke="#BD9A68" stroke-width="3"/>
<path d="M6.34082 39.5501C6.34082 40.3786 7.01239 41.0501 7.84082 41.0501C8.66925 41.0501 9.34082 40.3786 9.34082 39.5501L6.34082 39.5501ZM6.34082 34.2402L6.34082 39.5501L9.34082 39.5501L9.34082 34.2402L6.34082 34.2402Z" fill="#BD9A68"/>
<path d="M43.5103 39.5501C43.5103 40.3786 44.1818 41.0501 45.0103 41.0501C45.8387 41.0501 46.5103 40.3786 46.5103 39.5501L43.5103 39.5501ZM43.5103 34.2402L43.5103 39.5501L46.5103 39.5501L46.5103 34.2402L43.5103 34.2402Z" fill="#BD9A68"/>
<path d="M26.4253 26.8047L26.4253 14.061" stroke="#BD9A68" stroke-width="3" stroke-linecap="round"/>
<path d="M7 49H45" stroke="#BD9A68" stroke-width="3" stroke-linecap="round" stroke-linejoin="round"/>
</svg>
