<svg width="52" height="52" viewBox="0 0 52 52" fill="none" xmlns="http://www.w3.org/2000/svg">
<path d="M45.5 21.666C45.5 36.8327 26 49.8327 26 49.8327C26 49.8327 6.5 36.8327 6.5 21.666C6.5 16.4943 8.55446 11.5344 12.2114 7.87743C15.8684 4.22047 20.8283 2.16602 26 2.16602C31.1717 2.16602 36.1316 4.22047 39.7886 7.87743C43.4455 11.5344 45.5 16.4943 45.5 21.666Z" stroke="#BD9A68" stroke-width="3" stroke-linecap="round" stroke-linejoin="round"/>
<path d="M26 28.166C29.5899 28.166 32.5 25.2559 32.5 21.666C32.5 18.0762 29.5899 15.166 26 15.166C22.4101 15.166 19.5 18.0762 19.5 21.666C19.5 25.2559 22.4101 28.166 26 28.166Z" stroke="#BD9A68" stroke-width="3" stroke-linecap="round" stroke-linejoin="round"/>
</svg>
