<svg width="52" height="52" viewBox="0 0 52 52" fill="none" xmlns="http://www.w3.org/2000/svg">
<path d="M44 4H8C5.79086 4 4 5.79086 4 8V44C4 46.2091 5.79086 48 8 48H44C46.2091 48 48 46.2091 48 44V26V8C48 5.79086 46.2091 4 44 4Z" stroke="#BD9A68" stroke-width="3" stroke-linecap="round"/>
<path d="M27.2481 29.4114H19.8244V26.5H27.2481C28.6858 26.5 29.8499 26.2775 30.7405 25.8324C31.631 25.3874 32.2799 24.7692 32.687 23.978C33.1069 23.1868 33.3168 22.2843 33.3168 21.2706C33.3168 20.3434 33.1069 19.4718 32.687 18.6559C32.2799 17.84 31.631 17.1848 30.7405 16.6902C29.8499 16.1834 28.6858 15.9299 27.2481 15.9299H20.6832V40H17V13H27.2481C29.3473 13 31.1221 13.3523 32.5725 14.057C34.0229 14.7617 35.1234 15.7383 35.874 16.987C36.6247 18.2232 37 19.6387 37 21.2335C37 22.9643 36.6247 24.4416 35.874 25.6655C35.1234 26.8894 34.0229 27.8228 32.5725 28.4657C31.1221 29.0962 29.3473 29.4114 27.2481 29.4114Z" fill="#BD9A68"/>
</svg>
