<svg width="52" height="52" viewBox="0 0 52 52" fill="none" xmlns="http://www.w3.org/2000/svg">
<path d="M36.8333 45.5V41.1667C36.8333 38.8681 35.9202 36.6637 34.2949 35.0384C32.6696 33.4131 30.4652 32.5 28.1666 32.5H10.8333C8.53475 32.5 6.33035 33.4131 4.70503 35.0384C3.07972 36.6637 2.16663 38.8681 2.16663 41.1667V45.5" stroke="#BD9A68" stroke-width="3" stroke-linecap="round" stroke-linejoin="round"/>
<path d="M19.5 23.8333C24.2865 23.8333 28.1667 19.9531 28.1667 15.1667C28.1667 10.3802 24.2865 6.5 19.5 6.5C14.7136 6.5 10.8334 10.3802 10.8334 15.1667C10.8334 19.9531 14.7136 23.8333 19.5 23.8333Z" stroke="#BD9A68" stroke-width="3" stroke-linecap="round" stroke-linejoin="round"/>
<path d="M49.8334 45.4999V41.1666C49.8319 39.2464 49.1928 37.381 48.0163 35.8633C46.8399 34.3456 45.1927 33.2617 43.3334 32.7816" stroke="#BD9A68" stroke-width="3" stroke-linecap="round" stroke-linejoin="round"/>
<path d="M34.6666 6.78162C36.5309 7.25894 38.1832 8.34313 39.3632 9.86329C40.5431 11.3834 41.1836 13.2531 41.1836 15.1774C41.1836 17.1018 40.5431 18.9715 39.3632 20.4916C38.1832 22.0118 36.5309 23.096 34.6666 23.5733" stroke="#BD9A68" stroke-width="3" stroke-linecap="round" stroke-linejoin="round"/>
</svg>
