<svg width="36" height="42" viewBox="0 0 36 42" fill="none" xmlns="http://www.w3.org/2000/svg">
<path d="M26.1429 5.61914L29.2858 5.61914C32.0472 5.61914 34.2858 7.85772 34.2858 10.6191V35.0001C34.2858 37.7615 32.0472 40.0001 29.2858 40.0001H6.71436C3.95293 40.0001 1.71436 37.7615 1.71436 35.0001V10.6191C1.71436 7.85771 3.95293 5.61914 6.71436 5.61914H9.85721" stroke="#BD9A68" stroke-width="3" stroke-linecap="round" stroke-linejoin="round"/>
<path d="M13.4289 19.9048C16.2582 18.6557 17.8383 18.7419 20.667 19.9048" stroke="#BD9A68" stroke-width="3" stroke-linecap="round" stroke-linejoin="round"/>
<path d="M24.2384 26.9048C26.3604 25.6557 27.5455 25.7419 29.667 26.9048" stroke="#BD9A68" stroke-width="3" stroke-linecap="round" stroke-linejoin="round"/>
<path d="M13.4286 19.9038C11.3066 21.1529 10.1215 21.0667 8 19.9038" stroke="#BD9A68" stroke-width="3" stroke-linecap="round" stroke-linejoin="round"/>
<path d="M24.2381 26.9058C21.4088 28.1548 19.8287 28.0687 17 26.9058" stroke="#BD9A68" stroke-width="3" stroke-linecap="round" stroke-linejoin="round"/>
<path d="M14 2L14 9" stroke="#BD9A68" stroke-width="3" stroke-linecap="round" stroke-linejoin="round"/>
<path d="M20.7144 5L15.2858 5" stroke="#BD9A68" stroke-width="3" stroke-linecap="round" stroke-linejoin="round"/>
<path d="M22 2L22 9" stroke="#BD9A68" stroke-width="3" stroke-linecap="round" stroke-linejoin="round"/>
</svg>
