<svg width="52" height="52" viewBox="0 0 52 52" fill="none" xmlns="http://www.w3.org/2000/svg">
<path d="M8.47485 13C8.47485 10.7909 10.2657 9 12.4749 9H40.453C42.6622 9 44.453 10.7909 44.453 13V23.0784H8.47485V13Z" stroke="#BD9A68" stroke-width="3"/>
<path d="M3 32.5527C3 30.3436 4.79086 28.5527 7 28.5527H45.9281C48.1372 28.5527 49.9281 30.3436 49.9281 32.5527V37.1562H3V32.5527Z" stroke="#BD9A68" stroke-width="3"/>
<path d="M14.7319 18.6016C14.7319 18.0493 15.1796 17.6016 15.7319 17.6016H23.1176C23.6698 17.6016 24.1176 18.0493 24.1176 18.6016V23.0765H14.7319V18.6016Z" stroke="#BD9A68" stroke-width="3"/>
<path d="M28.8105 18.6016C28.8105 18.0493 29.2583 17.6016 29.8105 17.6016H37.1962C37.7484 17.6016 38.1962 18.0493 38.1962 18.6016V23.0765H28.8105V18.6016Z" stroke="#BD9A68" stroke-width="3"/>
<rect x="5.34619" y="23.0781" width="42.2353" height="5.47494" rx="2.73747" stroke="#BD9A68" stroke-width="3"/>
<path d="M6.96387 42.1562C6.96387 42.9847 7.63544 43.6562 8.46387 43.6562C9.29229 43.6563 9.96387 42.9847 9.96387 42.1563L6.96387 42.1562ZM6.96387 37.1562L6.96387 42.1562L9.96387 42.1563L9.96387 37.1563L6.96387 37.1562Z" fill="#BD9A68"/>
<path d="M42.9639 42.1562C42.9639 42.9847 43.6354 43.6562 44.4639 43.6562C45.2923 43.6563 45.9639 42.9847 45.9639 42.1563L42.9639 42.1562ZM42.9639 37.1562L42.9639 42.1562L45.9639 42.1563L45.9639 37.1563L42.9639 37.1562Z" fill="#BD9A68"/>
<path d="M7 49H45" stroke="#BD9A68" stroke-width="3" stroke-linecap="round" stroke-linejoin="round"/>
</svg>
