<svg width="52" height="52" viewBox="0 0 52 52" fill="none" xmlns="http://www.w3.org/2000/svg">
<path d="M49.8333 8.66602V21.666H36.8333" stroke="#BD9A68" stroke-width="3" stroke-linecap="round" stroke-linejoin="round"/>
<path d="M2.16669 43.334V30.334H15.1667" stroke="#BD9A68" stroke-width="3" stroke-linecap="round" stroke-linejoin="round"/>
<path d="M7.60502 19.5007C8.70388 16.3954 10.5715 13.6191 13.0335 11.4308C15.4956 9.24251 18.4719 7.71356 21.6846 6.98663C24.8974 6.25969 28.242 6.35847 31.4063 7.27374C34.5705 8.18901 37.4514 9.89095 39.78 12.2207L49.8334 21.6674M2.16669 30.3341L12.22 39.7807C14.5486 42.1105 17.4295 43.8125 20.5938 44.7277C23.7581 45.643 27.1026 45.7418 30.3154 45.0148C33.5282 44.2879 36.5045 42.759 38.9665 40.5707C41.4286 38.3824 43.2962 35.606 44.395 32.5007" stroke="#BD9A68" stroke-width="3" stroke-linecap="round" stroke-linejoin="round"/>
</svg>
