<svg width="40" height="40" viewBox="0 0 40 40" fill="none" xmlns="http://www.w3.org/2000/svg">
<path d="M30.2344 9.38281C33.0234 12.1719 34.75 15.8242 34.75 19.8086C34.75 27.9102 27.9766 34.5508 19.8086 34.5508C17.3516 34.5508 14.9609 33.8867 12.7695 32.7578L5 34.75L7.05859 27.1133C5.79688 24.9219 5.06641 22.3984 5.06641 19.7422C5.06641 11.6406 11.707 5 19.8086 5C23.793 5 27.5117 6.59375 30.2344 9.38281ZM19.8086 32.0273C26.582 32.0273 32.2266 26.5156 32.2266 19.8086C32.2266 16.4883 30.832 13.4336 28.5078 11.1094C26.1836 8.78516 23.1289 7.52344 19.875 7.52344C13.1016 7.52344 7.58984 13.0352 7.58984 19.7422C7.58984 22.0664 8.25391 24.3242 9.44922 26.3164L9.78125 26.7812L8.51953 31.2969L13.168 30.0352L13.5664 30.3008C15.4922 31.4297 17.6172 32.0273 19.8086 32.0273ZM26.582 22.8633C26.9141 23.0625 27.1797 23.1289 27.2461 23.3281C27.3789 23.4609 27.3789 24.1914 27.0469 25.0547C26.7148 25.918 25.2539 26.7148 24.5898 26.7812C23.3945 26.9805 22.4648 26.9141 20.1406 25.8516C16.4219 24.2578 14.0312 20.5391 13.832 20.3398C13.6328 20.0742 12.3711 18.3477 12.3711 16.4883C12.3711 14.6953 13.3008 13.832 13.6328 13.4336C13.9648 13.0352 14.3633 12.9688 14.6289 12.9688C14.8281 12.9688 15.0938 12.9688 15.293 12.9688C15.5586 12.9688 15.8242 12.9023 16.1562 13.6328C16.4219 14.3633 17.2188 16.1562 17.2852 16.3555C17.3516 16.5547 17.418 16.7539 17.2852 17.0195C16.6211 18.4141 15.8242 18.3477 16.2227 19.0117C17.6836 21.4688 19.0781 22.332 21.2695 23.3945C21.6016 23.5938 21.8008 23.5273 22.0664 23.3281C22.2656 23.0625 22.9961 22.1992 23.1953 21.8672C23.4609 21.4688 23.7266 21.5352 24.0586 21.668C24.3906 21.8008 26.1836 22.6641 26.582 22.8633Z" fill="#BD9A68"/>
</svg>
