<svg width="205" height="82" viewBox="0 0 205 82" fill="none" xmlns="http://www.w3.org/2000/svg">
<g clip-path="url(#clip0_1568_223)">
<mask id="mask0_1568_223" style="mask-type:luminance" maskUnits="userSpaceOnUse" x="136" y="0" width="41" height="40">
<path d="M156.555 0.00460985L136.575 19.9841L156.555 39.9637L176.534 19.9841L156.555 0.00460985Z" fill="white"/>
</mask>
<g mask="url(#mask0_1568_223)">
<path d="M199.937 -0.91748H113.182V82.9175H199.937V-0.91748Z" fill="url(#paint0_radial_1568_223)"/>
</g>
<mask id="mask1_1568_223" style="mask-type:luminance" maskUnits="userSpaceOnUse" x="137" y="62" width="39" height="20">
<path d="M175.626 62.9331L156.559 81.9999L137.493 62.9331H175.626Z" fill="white"/>
</mask>
<g mask="url(#mask1_1568_223)">
<path d="M199.937 -0.91748H113.182V82.9175H199.937V-0.91748Z" fill="url(#paint1_radial_1568_223)"/>
</g>
<mask id="mask2_1568_223" style="mask-type:luminance" maskUnits="userSpaceOnUse" x="158" y="21" width="39" height="20">
<path d="M196.582 40.0289H158.569L177.575 21.0156L196.582 40.0289Z" fill="white"/>
</mask>
<g mask="url(#mask2_1568_223)">
<path d="M199.937 -0.91748H113.182V82.9175H199.937V-0.91748Z" fill="url(#paint2_radial_1568_223)"/>
</g>
<mask id="mask3_1568_223" style="mask-type:luminance" maskUnits="userSpaceOnUse" x="116" y="21" width="39" height="20">
<path d="M154.544 40.0289H116.531L135.537 21.0156L154.544 40.0289Z" fill="white"/>
</mask>
<g mask="url(#mask3_1568_223)">
<path d="M199.937 -0.91748H113.182V82.9175H199.937V-0.91748Z" fill="url(#paint3_radial_1568_223)"/>
</g>
<path d="M9.98546 37.6579C10.2199 36.9882 10.3337 36.4257 10.3337 35.9636C10.3337 35.0929 9.94528 34.5638 9.16841 34.3696H22.9713L32.0191 59.5911C32.4009 60.4216 32.7893 61.0377 33.1844 61.4261H20.4196C20.6942 61.0042 20.8282 60.4484 20.8282 59.7519C20.8282 58.7607 20.5402 57.4748 19.9709 55.8943L19.4017 54.2803H8.45181L6.63688 58.8745C6.52973 59.3232 6.47615 59.7184 6.47615 60.0599C6.47615 60.743 6.70386 61.1984 7.15257 61.4261H0C1.01797 60.4082 1.8752 59.042 2.55162 57.3409L9.69748 38.4281L9.67739 38.4482C9.70418 38.3678 9.73767 38.2942 9.77785 38.2205L9.98546 37.6512V37.6579ZM17.7475 49.686L14.1913 39.7809L10.2734 49.686H17.7475Z" fill="#202020"/>
<path d="M50.0345 58.8545C49.693 59.8725 49.3514 60.5556 49.0032 60.8971C48.6549 61.2387 47.9852 61.4061 46.994 61.4061H40.337C37.9528 61.4061 36.1647 60.8101 34.9793 59.618C33.7872 58.4259 33.1912 56.4703 33.1912 53.7446V49.1503C33.1912 46.4112 33.7872 44.4556 34.9793 43.2702C36.1714 42.0848 37.9595 41.4955 40.337 41.4955H46.9739C47.657 41.4955 48.2531 41.6629 48.7621 42.0045C49.271 42.346 49.6997 43.0224 50.0412 44.0471L50.0211 37.4102C50.0211 36.0641 49.6863 35.0461 49.0232 34.3697L60.7634 34.3496C60.0803 35.0461 59.7454 36.0641 59.7454 37.4102V58.3656C59.7454 59.7251 60.087 60.7498 60.7634 61.4262L51.0659 61.4061C50.3828 60.7364 50.0479 59.8859 50.0479 58.8545H50.0345ZM50.0345 54.7893V48.1324C50.0345 47.1144 49.8671 46.5183 49.5255 46.3442C49.184 46.1768 48.6817 46.0897 48.012 46.0897H45.4403C44.7705 46.0897 44.2683 46.1768 43.92 46.3442C43.5718 46.5116 43.3976 47.101 43.3976 48.1123V54.7692C43.3976 55.7872 43.5718 56.3833 43.92 56.5574C44.2683 56.7248 44.7772 56.8119 45.4403 56.8119H47.9919C48.675 56.8119 49.1773 56.7248 49.5121 56.5574C49.847 56.39 50.0211 55.8006 50.0345 54.7893Z" fill="#202020"/>
<path d="M88.8177 53.7713H73.0124V54.9165C73.0124 55.8541 73.1732 56.41 73.5013 56.5707C73.8429 56.7449 74.3519 56.8453 75.035 56.8587L85.2482 56.8386C86.6077 56.8386 87.7998 56.6712 88.8244 56.3296L87.2908 61.4329H69.4228C67.3801 61.4329 65.7661 60.8435 64.574 59.6581C63.3819 58.4727 62.7859 56.5172 62.7859 53.7981V49.1838C62.7859 46.458 63.3819 44.5025 64.574 43.3104C65.7661 42.1183 67.3801 41.5222 69.4228 41.5222H82.1876C84.2168 41.5222 85.8308 42.1183 87.0296 43.3104C88.2284 44.5025 88.8244 46.458 88.8244 49.1838V53.778L88.8177 53.7713ZM79.1203 46.3643C78.7787 46.1968 78.2697 46.1098 77.5866 46.1098H75.035C74.3519 46.1098 73.8496 46.1968 73.5147 46.3643C73.1799 46.5317 73.0057 47.1277 72.9924 48.1524V50.195H79.6292V48.1524C79.6292 47.1344 79.4618 46.5384 79.1203 46.3643Z" fill="#202020"/>
<path d="M90.8403 61.4462C91.5234 60.7497 91.8583 59.7318 91.8583 58.3856V37.4302C91.8583 36.0707 91.5167 35.046 90.8403 34.3696H101.583V58.3856C101.583 59.7318 101.917 60.7497 102.58 61.4261L90.8403 61.4462Z" fill="#202020"/>
<path d="M121.473 58.8745C121.132 59.8925 120.71 60.5756 120.194 60.9171C119.685 61.2587 119.089 61.4261 118.406 61.4261H111.769C109.385 61.4261 107.597 60.8368 106.411 59.6514C105.219 58.466 104.623 56.5037 104.623 53.7713V49.177C104.623 46.4513 105.219 44.4957 106.411 43.3036C107.603 42.1115 109.391 41.5155 111.769 41.5155H118.426C119.417 41.5155 120.093 41.6829 120.435 42.0244C120.783 42.366 121.125 43.0424 121.466 44.0671C121.466 43.0357 121.808 42.1785 122.484 41.5155L132.182 41.4954C131.499 42.1785 131.164 43.1964 131.164 44.556V60.9171C131.164 63.6429 130.655 65.5114 129.63 66.536C127.929 67.8956 126.054 68.5787 124.011 68.5787L107.65 68.5988L106.652 63.4955C107.67 63.8237 108.856 63.9844 110.208 63.9844L119.377 64.0045C120.06 64.0045 120.569 63.9174 120.917 63.75C121.265 63.5826 121.446 62.9798 121.46 61.9418V58.8812L121.473 58.8745ZM120.951 46.3642C120.616 46.1968 120.107 46.1097 119.43 46.1097H116.879C116.209 46.1097 115.707 46.1968 115.359 46.3642C115.01 46.5316 114.836 47.1277 114.836 48.1523V54.8093C114.836 55.8139 115.01 56.4032 115.359 56.5774C115.707 56.7448 116.216 56.8319 116.879 56.8319H119.451C120.12 56.8319 120.623 56.7448 120.964 56.5774C121.306 56.4099 121.473 55.8139 121.473 54.7892V48.1322C121.46 47.1277 121.286 46.5383 120.951 46.3642Z" fill="#202020"/>
<path d="M136.281 41.4956L153.66 41.5157H153.74C156.084 41.5157 157.845 42.105 159.031 43.2904C160.216 44.5026 160.806 46.4649 160.806 49.1705V58.4394C160.806 59.7453 161.127 60.7432 161.763 61.4196H152.126C151.443 60.7499 151.108 59.9195 151.108 58.9283V58.868C150.753 59.886 150.311 60.5691 149.769 60.9106C149.233 61.2522 148.657 61.4196 148.041 61.4196H139.93C138.176 61.4196 136.79 60.9977 135.772 60.1539C134.76 59.31 134.245 57.5219 134.231 54.7827C134.245 52.057 134.673 50.2755 135.517 49.4317C136.361 48.5879 137.814 48.1659 139.87 48.1659H149.039C149.722 48.1659 150.144 48.0789 150.318 47.8981C150.485 47.7239 150.579 47.456 150.592 47.1011C150.579 46.7863 150.485 46.5452 150.318 46.3644C150.15 46.1903 149.728 46.0965 149.059 46.0965H138.316C136.97 46.0965 135.778 46.2639 134.74 46.6055L136.274 41.4822L136.281 41.4956ZM145.978 52.7468C145.295 52.7468 144.786 52.8272 144.444 52.9946C144.116 53.1687 143.955 53.7447 143.955 54.7091V55.0774C143.955 55.9079 144.089 56.3901 144.364 56.5307C144.665 56.6914 145.194 56.7919 145.958 56.8187L149.039 56.8388C149.722 56.8388 150.224 56.7517 150.559 56.5843C150.894 56.4168 151.075 55.8208 151.101 54.7961L151.081 52.7535H145.978V52.7468Z" fill="#202020"/>
<path d="M188.826 48.1525C188.84 48.4806 188.846 48.8155 188.846 49.1504V58.8746C188.846 59.8926 189.188 60.7498 189.864 61.4262H179.142C179.825 60.7431 180.16 59.8926 180.16 58.8746V48.1123C180.16 47.1077 179.986 46.5184 179.638 46.3442C179.29 46.1768 178.781 46.0897 178.118 46.0897H176.584C175.901 46.0897 175.392 46.1768 175.05 46.3442C174.709 46.5117 174.541 47.1077 174.541 48.1324V58.8545C174.541 59.8926 174.883 60.7498 175.559 61.4262H163.819C164.502 60.7431 164.837 59.7252 164.837 58.3656V44.5829C164.837 43.2368 164.496 42.2121 163.819 41.5223H173.517C174.2 42.2054 174.535 43.0492 174.535 44.0538C174.876 43.0358 175.298 42.3527 175.814 42.0112C176.323 41.6696 177.093 41.5022 178.111 41.5022H181.687C184.071 41.5022 185.859 42.0915 187.058 43.2769C187.319 43.5381 187.547 43.8328 187.755 44.1744L187.815 44.0739C188.157 43.0559 188.578 42.3728 189.094 42.0313C189.603 41.6897 190.373 41.5223 191.391 41.5223L196.495 41.5022C198.879 41.5022 200.667 42.0915 201.852 43.2769C203.038 44.4623 203.64 46.4246 203.64 49.157V58.8813C203.64 59.8993 203.982 60.7565 204.658 61.4329H193.936C194.619 60.7498 194.954 59.8993 194.954 58.8813V48.119C194.954 47.1144 194.78 46.5251 194.432 46.3509C194.084 46.1835 193.575 46.0964 192.912 46.0964L190.869 46.1165C190.186 46.1165 189.677 46.2036 189.335 46.371C188.994 46.5385 188.826 47.1345 188.826 48.1592H188.806L188.826 48.1525Z" fill="#202020"/>
<path d="M0 64.5874H2.5985C3.71023 64.5874 3.93793 64.6276 4.30627 64.8821C4.7148 65.1767 4.89562 65.7192 4.89562 66.6836C4.89562 67.648 4.64113 68.2574 4.07187 68.4918C3.7705 68.6258 3.73032 68.6325 2.5851 68.6526H0.964391V70.9095H0V64.5874ZM2.49134 67.8221C3.72362 67.8221 3.91114 67.6614 3.91114 66.6635C3.91114 65.9134 3.82408 65.6322 3.54949 65.5049C3.38206 65.4178 3.21464 65.3978 2.65877 65.3978H0.964391V67.8154H2.49134V67.8221Z" fill="#202020"/>
<path d="M6.54324 66.4828L6.47627 67.0521H6.49636C6.77764 66.5766 7.1125 66.3958 7.72863 66.3958C8.57248 66.3958 8.92073 66.7909 8.92073 67.762C8.92073 67.8022 8.92073 67.9428 8.91403 68.0767H8.09028C8.09698 67.9428 8.09698 67.8691 8.09698 67.7821C8.09698 67.2731 7.93625 67.099 7.46075 67.099C7.05222 67.099 6.77094 67.253 6.637 67.5276C6.57003 67.6883 6.54324 67.8758 6.54324 68.2777V70.9163H5.67261V66.4895H6.54324V66.4828Z" fill="#202020"/>
<path d="M13.1131 66.7706C13.4547 67.072 13.5886 67.5743 13.5886 68.6124C13.5886 70.5813 13.2538 70.9765 11.5527 70.9765C10.5682 70.9765 10.0927 70.8224 9.83824 70.4273C9.61053 70.0857 9.53687 69.637 9.53687 68.6325C9.53687 66.8309 9.89851 66.4358 11.546 66.4358C12.4434 66.4358 12.8252 66.5229 13.1198 66.7773L13.1131 66.7706ZM10.4276 68.6592C10.4276 70.1125 10.5414 70.2733 11.5661 70.2733C12.5908 70.2733 12.6845 70.0857 12.6845 68.6726C12.6845 67.2595 12.564 67.139 11.5594 67.139C10.5548 67.139 10.4343 67.3198 10.4343 68.6659L10.4276 68.6592Z" fill="#202020"/>
<path d="M15.3968 66.4828L15.3767 67.1592H15.3968C15.6446 66.6368 16.0397 66.4292 16.7898 66.4292C17.5399 66.4292 18.0154 66.6971 18.1359 67.2195H18.156C18.4105 66.6569 18.8458 66.4292 19.616 66.4292C20.2723 66.4292 20.7344 66.6167 20.9554 66.9717C21.0961 67.1994 21.1563 67.5007 21.1563 68.003V70.9163H20.2857V68.0901C20.2857 67.8356 20.2455 67.5677 20.192 67.4539C20.0848 67.2463 19.8437 67.1525 19.4352 67.1525C18.8927 67.1525 18.5043 67.3132 18.3837 67.5878C18.3101 67.7418 18.2766 67.9762 18.2766 68.3379V70.9163H17.4059V68.1035C17.3925 67.7508 17.368 67.5365 17.3323 67.4606C17.2251 67.2596 16.9639 67.1592 16.5554 67.1592C15.7183 67.1592 15.4102 67.5007 15.4102 68.3848V70.923H14.5396V66.4962H15.4102L15.3968 66.4828Z" fill="#202020"/>
<path d="M25.6769 66.7706C26.0184 67.072 26.1524 67.5743 26.1524 68.6124C26.1524 70.5813 25.8175 70.9765 24.1164 70.9765C23.1319 70.9765 22.6565 70.8224 22.402 70.4273C22.1743 70.0857 22.1006 69.637 22.1006 68.6325C22.1006 66.8309 22.4622 66.4358 24.1097 66.4358C25.0072 66.4358 25.3889 66.5229 25.6836 66.7773L25.6769 66.7706ZM22.9913 68.6592C22.9913 70.1125 23.1052 70.2733 24.1298 70.2733C25.1545 70.2733 25.2483 70.0857 25.2483 68.6726C25.2483 67.2595 25.1277 67.139 24.1231 67.139C23.1186 67.139 22.998 67.3198 22.998 68.6659L22.9913 68.6592Z" fill="#202020"/>
<path d="M30.8806 69.2621C30.8806 69.9184 30.827 70.193 30.6529 70.4408C30.385 70.8292 29.9497 70.9699 28.9719 70.9699C27.3311 70.9699 26.9426 70.5212 26.9426 68.666C26.9426 66.9114 27.3712 66.4292 28.9451 66.4292C29.943 66.4292 30.472 66.6368 30.6796 67.1123C30.7734 67.3333 30.8136 67.561 30.8136 67.9963H29.9497C29.9563 67.2931 29.7688 67.1324 28.9183 67.1324C27.9673 67.1324 27.84 67.3333 27.84 68.7129C27.84 69.396 27.907 69.8247 28.0611 70.0323C28.1816 70.1997 28.4562 70.2667 29.0455 70.2667C29.8827 70.2667 30.0233 70.126 30.0233 69.2621H30.8873H30.8806ZM29.4875 71.7133L28.5968 72.5571L28.2352 72.2758L29.012 71.3114L29.4875 71.7199V71.7133Z" fill="#202020"/>
<path d="M31.7447 67.7485C31.7513 67.2998 31.7915 67.0922 31.9121 66.898C32.1331 66.5631 32.6019 66.4359 33.573 66.4359C35.0731 66.4359 35.4951 66.7841 35.4951 68.0097V70.923H34.6244L34.6713 70.3805H34.6512C34.3967 70.8359 34.0552 70.9765 33.1979 70.9765C31.9857 70.9765 31.5571 70.6149 31.5571 69.6237C31.5571 69.1214 31.6978 68.7062 31.9389 68.5254C32.1934 68.3379 32.622 68.2307 33.218 68.2307C33.6801 68.2307 34.0552 68.2776 34.2896 68.3847C34.4302 68.4383 34.5173 68.5254 34.6043 68.7062H34.6244V68.0834C34.6244 67.2328 34.457 67.052 33.5998 67.052C32.9635 67.052 32.7157 67.1592 32.6488 67.4337C32.6421 67.4739 32.6287 67.5878 32.622 67.7686H31.738L31.7447 67.7485ZM35.2607 65.217C34.9861 65.7126 34.7115 65.9269 34.3498 65.9269C34.1623 65.9269 33.9212 65.8532 33.6399 65.6992C33.2783 65.5116 33.1845 65.4715 33.0506 65.4715C32.8631 65.4715 32.7559 65.5585 32.6019 65.8532L32.0929 65.5518C32.4077 65.0428 32.6622 64.8486 33.0305 64.8486C33.2113 64.8486 33.4189 64.9156 33.7203 65.0763C34.1154 65.2772 34.2025 65.3107 34.3298 65.3107C34.4905 65.3107 34.6043 65.1969 34.745 64.9223L35.254 65.217H35.2607ZM32.4679 69.5166C32.4679 70.1595 32.6488 70.3068 33.4792 70.3068C34.3632 70.3068 34.6445 70.126 34.6445 69.5835C34.6445 68.9942 34.3967 68.8334 33.5328 68.8334C32.6689 68.8334 32.4612 68.9674 32.4612 69.5166H32.4679Z" fill="#202020"/>
<path d="M40.0155 66.7706C40.357 67.072 40.491 67.5743 40.491 68.6124C40.491 70.5813 40.1561 70.9765 38.4551 70.9765C37.4706 70.9765 36.9951 70.8224 36.7406 70.4273C36.5129 70.0857 36.4392 69.637 36.4392 68.6325C36.4392 66.8309 36.8009 66.4358 38.4484 66.4358C39.3458 66.4358 39.7275 66.5229 40.0222 66.7773L40.0155 66.7706ZM37.3299 68.6592C37.3299 70.1125 37.4438 70.2733 38.4684 70.2733C39.4931 70.2733 39.5869 70.0857 39.5869 68.6726C39.5869 67.2595 39.4663 67.139 38.4618 67.139C37.4572 67.139 37.3366 67.3198 37.3366 68.6659L37.3299 68.6592Z" fill="#202020"/>
<path d="M44.804 70.9164H43.8396V64.5942H44.804V70.9164Z" fill="#202020"/>
<path d="M46.793 66.4828L46.7729 67.1592H46.793C47.0408 66.6368 47.436 66.4292 48.186 66.4292C48.9361 66.4292 49.4116 66.6971 49.5322 67.2195H49.5523C49.8067 66.6569 50.2421 66.4292 51.0122 66.4292C51.6686 66.4292 52.1307 66.6167 52.3517 66.9717C52.4923 67.1994 52.5526 67.5007 52.5526 68.003V70.9163H51.682V68.0901C51.682 67.8356 51.6418 67.5677 51.5882 67.4539C51.481 67.2463 51.2399 67.1525 50.8314 67.1525C50.2889 67.1525 49.9005 67.3132 49.78 67.5878C49.7063 67.7418 49.6728 67.9762 49.6728 68.3379V70.9163H48.8022V68.1035C48.7888 67.7508 48.7642 67.5365 48.7285 67.4606C48.6214 67.2596 48.3602 67.1592 47.9516 67.1592C47.1145 67.1592 46.8064 67.5007 46.8064 68.3848V70.923H45.9358V66.4962H46.8064L46.793 66.4828Z" fill="#202020"/>
<path d="M57.0731 66.7706C57.4147 67.072 57.5486 67.5743 57.5486 68.6124C57.5486 70.5813 57.2138 70.9765 55.5127 70.9765C54.5282 70.9765 54.0527 70.8224 53.7982 70.4273C53.5705 70.0857 53.4968 69.637 53.4968 68.6325C53.4968 66.8309 53.8585 66.4358 55.506 66.4358C56.4034 66.4358 56.7851 66.5229 57.0798 66.7773L57.0731 66.7706ZM54.3875 68.6592C54.3875 70.1125 54.5014 70.2733 55.5261 70.2733C56.5507 70.2733 56.6445 70.0857 56.6445 68.6726C56.6445 67.2595 56.5239 67.139 55.5194 67.139C54.5148 67.139 54.3942 67.3198 54.3942 68.6659L54.3875 68.6592Z" fill="#202020"/>
<path d="M58.4863 64.5874H59.357V67.0921H59.3771C59.5579 66.63 59.9664 66.4291 60.7901 66.4291C61.3527 66.4291 61.7679 66.5497 62.0157 66.7975C62.3506 67.1189 62.4778 67.6614 62.4778 68.7128C62.4778 69.7643 62.3707 70.1728 62.0425 70.5412C61.7947 70.8225 61.3527 70.9698 60.7031 70.9698C59.9664 70.9698 59.5847 70.7823 59.3369 70.28H59.3168L59.357 70.9162H58.4863V64.5941V64.5874ZM59.3771 68.5454C59.3771 70.0255 59.5378 70.2599 60.5022 70.2599C61.3929 70.2599 61.5737 69.992 61.5737 68.7128C61.5737 67.4337 61.3929 67.139 60.5022 67.139C59.6114 67.139 59.3771 67.4605 59.3771 68.5454Z" fill="#202020"/>
<path d="M64.2928 65.4111H63.4221V64.5874H64.2928V65.4111ZM64.2928 70.9162H63.4221V66.4894H64.2928V70.9162Z" fill="#202020"/>
<path d="M66.2549 70.9164H65.3843V64.5942H66.2549V70.9164Z" fill="#202020"/>
<path d="M68.2239 65.4111H67.3533V64.5874H68.2239V65.4111ZM68.2239 70.9162H67.3533V66.4894H68.2239V70.9162Z" fill="#202020"/>
<path d="M69.3423 67.7485C69.349 67.2998 69.3892 67.0922 69.5097 66.898C69.7307 66.5631 70.1995 66.4359 71.1706 66.4359C72.6708 66.4359 73.0927 66.7842 73.0927 68.0097V70.923H72.2221L72.269 70.3805H72.2489C71.9944 70.8359 71.6528 70.9766 70.7956 70.9766C69.5834 70.9766 69.1548 70.6149 69.1548 69.6237C69.1548 69.1215 69.2954 68.7062 69.5365 68.5254C69.791 68.3379 70.2196 68.2307 70.8157 68.2307C71.2778 68.2307 71.6528 68.2776 71.8872 68.3848C72.0279 68.4383 72.1149 68.5254 72.202 68.7062H72.2221V68.0834C72.2221 67.2329 72.0547 67.052 71.1974 67.052C70.5612 67.052 70.3134 67.1592 70.2464 67.4338C70.2397 67.474 70.2263 67.5878 70.2196 67.7686H69.3356L69.3423 67.7485ZM70.0589 69.5166C70.0589 70.1595 70.2397 70.3069 71.0702 70.3069C71.9542 70.3069 72.2355 70.126 72.2355 69.5836C72.2355 68.9942 71.9877 68.8335 71.1237 68.8335C70.2598 68.8335 70.0522 68.9674 70.0522 69.5166H70.0589ZM72.5435 65.1768L70.876 66.0207L70.6282 65.5921L72.1551 64.5205L72.5435 65.1768Z" fill="#202020"/>
<path d="M75.0349 66.4828L74.968 67.0521H74.9881C75.2693 66.5766 75.6042 66.3958 76.2203 66.3958C77.0642 66.3958 77.4124 66.7909 77.4124 67.762C77.4124 67.8022 77.4124 67.9428 77.4057 68.0767H76.582C76.5887 67.9428 76.5887 67.8691 76.5887 67.7821C76.5887 67.2731 76.4279 67.099 75.9525 67.099C75.5439 67.099 75.2626 67.253 75.1287 67.5276C75.0617 67.6883 75.0349 67.8758 75.0349 68.2777V70.9163H74.1643V66.4895H75.0349V66.4828Z" fill="#202020"/>
<path d="M78.9795 65.4111H78.1089V64.5874H78.9795V65.4111ZM78.9795 70.9162H78.1089V66.4894H78.9795V70.9162Z" fill="#202020"/>
<path d="M80.0979 67.7484C80.1046 67.2997 80.1448 67.0921 80.2653 66.8979C80.4864 66.563 80.9552 66.4358 81.9262 66.4358C83.4264 66.4358 83.8483 66.784 83.8483 68.0096V70.9229H82.9777L83.0246 70.3804H83.0045C82.75 70.8358 82.4084 70.9765 81.5512 70.9765C80.339 70.9765 79.9104 70.6148 79.9104 69.6236C79.9104 69.1214 80.051 68.7061 80.2921 68.5253C80.5466 68.3378 80.9753 68.2306 81.5713 68.2306C82.0334 68.2306 82.4084 68.2775 82.6428 68.3847C82.7835 68.4382 82.8705 68.5253 82.9576 68.7061H82.9777V68.0833C82.9777 67.2328 82.8103 67.0519 81.953 67.0519C81.3168 67.0519 81.069 67.1591 81.002 67.4337C80.9953 67.4739 80.9819 67.5877 80.9753 67.7685H80.0912L80.0979 67.7484ZM80.8212 69.5165C80.8212 70.1594 81.002 70.3068 81.8325 70.3068C82.7165 70.3068 82.9978 70.1259 82.9978 69.5835C82.9978 68.9941 82.75 68.8334 81.8861 68.8334C81.0221 68.8334 80.8145 68.9673 80.8145 69.5165H80.8212Z" fill="#202020"/>
<path d="M85.7905 70.9229C85.7905 71.673 85.5896 71.9074 84.9868 71.9074H84.7993V71.4788C85.161 71.4721 85.2614 71.3716 85.2614 71.0501V70.9095H84.8931V69.9116H85.7905V70.9162V70.9229Z" fill="#202020"/>
<path d="M90.2642 70.0389H93.365V70.9095H89.2998V64.5874H90.2642V70.0389Z" fill="#202020"/>
<path d="M97.7851 70.9164H96.9346L96.9614 70.2734H96.9413C96.7136 70.7757 96.3318 70.9766 95.555 70.9766C94.9388 70.9766 94.4834 70.836 94.2289 70.548C93.9142 70.2065 93.8137 69.7444 93.8137 68.6326C93.8137 67.6481 93.9209 67.1994 94.2423 66.8378C94.4901 66.5699 94.9188 66.4293 95.5215 66.4293C96.3185 66.4293 96.7136 66.6168 96.8944 67.0856H96.9145V64.5942H97.7851V70.9164ZM94.9589 67.3468C94.7915 67.5276 94.7044 67.9361 94.7044 68.6192C94.7044 69.9921 94.8853 70.2667 95.7827 70.2667C96.7337 70.2667 96.9078 69.9988 96.9078 68.5857C96.9078 67.4271 96.6801 67.1325 95.7693 67.1325C95.3809 67.1325 95.0795 67.2061 94.9522 67.3401L94.9589 67.3468Z" fill="#202020"/>
<path d="M98.8299 67.7484C98.8366 67.2997 98.8767 67.0921 98.9973 66.8979C99.2183 66.563 99.6871 66.4358 100.658 66.4358C102.158 66.4358 102.58 66.784 102.58 68.0096V70.9229H101.71L101.757 70.3804H101.736C101.482 70.8358 101.14 70.9765 100.283 70.9765C99.071 70.9765 98.6423 70.6148 98.6423 69.6236C98.6423 69.1214 98.783 68.7061 99.0241 68.5253C99.2786 68.3378 99.7072 68.2306 100.303 68.2306C100.765 68.2306 101.14 68.2775 101.375 68.3847C101.515 68.4382 101.602 68.5253 101.69 68.7061H101.71V68.0833C101.71 67.2328 101.542 67.0519 100.685 67.0519C100.049 67.0519 99.8009 67.1591 99.734 67.4337C99.7273 67.4739 99.7139 67.5877 99.7072 67.7685H98.8232L98.8299 67.7484ZM99.5465 69.5165C99.5465 70.1594 99.7273 70.3068 100.558 70.3068C101.442 70.3068 101.723 70.1259 101.723 69.5835C101.723 68.9941 101.475 68.8334 100.611 68.8334C99.7474 68.8334 99.5398 68.9673 99.5398 69.5165H99.5465Z" fill="#202020"/>
</g>
<defs>
<radialGradient id="paint0_radial_1568_223" cx="0" cy="0" r="1" gradientUnits="userSpaceOnUse" gradientTransform="translate(156.559 41) scale(42.6542 42.6542)">
<stop stop-color="#FEF066"/>
<stop offset="0.15" stop-color="#FDEA62"/>
<stop offset="0.35" stop-color="#FAD959"/>
<stop offset="0.58" stop-color="#F7BE4A"/>
<stop offset="0.82" stop-color="#F19935"/>
<stop offset="1" stop-color="#ED7823"/>
</radialGradient>
<radialGradient id="paint1_radial_1568_223" cx="0" cy="0" r="1" gradientUnits="userSpaceOnUse" gradientTransform="translate(156.559 41) scale(42.6542 42.6542)">
<stop stop-color="#FEF066"/>
<stop offset="0.15" stop-color="#FDEA62"/>
<stop offset="0.35" stop-color="#FAD959"/>
<stop offset="0.58" stop-color="#F7BE4A"/>
<stop offset="0.82" stop-color="#F19935"/>
<stop offset="1" stop-color="#ED7823"/>
</radialGradient>
<radialGradient id="paint2_radial_1568_223" cx="0" cy="0" r="1" gradientUnits="userSpaceOnUse" gradientTransform="translate(156.559 41) scale(42.6542 42.6542)">
<stop stop-color="#FEF066"/>
<stop offset="0.15" stop-color="#FDEA62"/>
<stop offset="0.35" stop-color="#FAD959"/>
<stop offset="0.58" stop-color="#F7BE4A"/>
<stop offset="0.82" stop-color="#F19935"/>
<stop offset="1" stop-color="#ED7823"/>
</radialGradient>
<radialGradient id="paint3_radial_1568_223" cx="0" cy="0" r="1" gradientUnits="userSpaceOnUse" gradientTransform="translate(156.559 41) scale(42.6542 42.6542)">
<stop stop-color="#FEF066"/>
<stop offset="0.15" stop-color="#FDEA62"/>
<stop offset="0.35" stop-color="#FAD959"/>
<stop offset="0.58" stop-color="#F7BE4A"/>
<stop offset="0.82" stop-color="#F19935"/>
<stop offset="1" stop-color="#ED7823"/>
</radialGradient>
<clipPath id="clip0_1568_223">
<rect width="204.672" height="82" fill="white"/>
</clipPath>
</defs>
</svg>
